# xmcd
#
# Track frame offsets:
#	150
#	16806
#	33178
#	49863
#	67185
#	84042
#	101166
#	117947
#	134458
#	150844
#	169132
#	185094
#
# Disc length: 2704 seconds
#
# Revision: 2
# Processed by: cddbd v1.4PL0 Copyright (c) Steve Scherf et al.
# Submitted via: EZCDDA 4.3.2
#
DISCID=950a8e0c
DTITLE=Dainis Porgants - Nesaki Vienalga
DYEAR=1900
DGENRE=
TTITLE0=Dziedi lîdzi!
TTITLE1=Sapòu dârzs
TTITLE2=Nesaki vienalga
TTITLE3=Pretî nezinâmai dienai
TTITLE4=Viss nâk un iet
TTITLE5=Tâlumâ
TTITLE6=Lietus karaliene
TTITLE7=Pirms vçlies
TTITLE8=Reizçm man liekas
TTITLE9=Krâsaina sirds
TTITLE10=Es atceros
TTITLE11=Kopâ ejam mçs
EXTD=
EXTT0=
EXTT1=
EXTT2=
EXTT3=
EXTT4=
EXTT5=
EXTT6=
EXTT7=
EXTT8=
EXTT9=
EXTT10=
EXTT11=
PLAYORDER=
